<svg xmlns="http://www.w3.org/2000/svg" width="28" height="36">
    <path fill="#FFEE91" fill-rule="evenodd" d="M.874.001c-.47 0-.875.46-.874.837v34.325c0 .438.417.837.874.837h26.251c.458 0 .875-.399.875-.837V8.373a.836.836 0 0 0-.26-.602L19.865.237a.91.91 0 0 0-.615-.236H.874zm.876 1.675h16.625v6.697c0 .439.417.837.875.837h6.999v25.115H1.75V1.676zm18.374 1.177l4.895 4.683h-4.895V2.853zM5.25 14.233c-.483 0-.875.375-.875.838 0 .462.392.836.875.836h14c.483 0 .874-.374.874-.836 0-.463-.391-.838-.874-.838h-14zm0 6.697c-.483 0-.875.376-.875.838 0 .462.392.837.875.837h17.5c.482 0 .875-.375.875-.837 0-.462-.393-.838-.875-.838H5.25zm0 6.698c-.483 0-.875.375-.875.837 0 .463.392.837.875.837h17.5c.482 0 .875-.374.875-.837 0-.462-.393-.837-.875-.837H5.25z"/>
</svg>
