<svg width="217" height="46" viewBox="0 0 217 46" version="1.1" xmlns="http://www.w3.org/2000/svg" xmlns:xlink="http://www.w3.org/1999/xlink">
<title>Group</title>
<desc>Created using Figma</desc>
<g id="Canvas" transform="translate(-580 1167)">
<g id="Group">
<g id="Rectangle 2">
<use xlink:href="#path0_fill" transform="translate(580 -1167)" fill="#FFEE91"/>
</g>
<g id="ic_attach_file_48px">
<g id="Group">
<g id="Vector">
<use xlink:href="#path1_fill" transform="translate(600.25 -1153.5)" fill="#171718"/>
</g>
</g>
</g>
<g id="&#208;&#146;&#209;&#139;&#208;&#177;&#208;&#181;&#209;&#128;&#208;&#184;&#209;&#130;&#208;&#181; &#209;&#132;&#208;&#176;&#208;&#185;&#208;&#187;">
<use xlink:href="#path2_fill" transform="translate(631 -1167)"/>
</g>
</g>
</g>
<defs>
<path id="path0_fill" d="M 0 0L 217 0L 217 46L 0 46L 0 0Z"/>
<path id="path1_fill" d="M 9.06818 4.77273L 9.06818 15.75C 9.06818 17.8595 7.35955 19.5682 5.25 19.5682C 3.14045 19.5682 1.43182 17.8595 1.43182 15.75L 1.43182 3.81818C 1.43182 2.50091 2.50091 1.43182 3.81818 1.43182C 5.13545 1.43182 6.20455 2.50091 6.20455 3.81818L 6.20455 13.8409C 6.20455 14.3659 5.77977 14.7955 5.25 14.7955C 4.72023 14.7955 4.29545 14.3659 4.29545 13.8409L 4.29545 4.77273L 2.86364 4.77273L 2.86364 13.8409C 2.86364 15.1582 3.93273 16.2273 5.25 16.2273C 6.56727 16.2273 7.63636 15.1582 7.63636 13.8409L 7.63636 3.81818C 7.63636 1.70864 5.92773 0 3.81818 0C 1.70864 0 0 1.70864 0 3.81818L 0 15.75C 0 18.6518 2.35295 21 5.25 21C 8.14705 21 10.5 18.6518 10.5 15.75L 10.5 4.77273L 9.06818 4.77273Z"/>
<path id="path2_fill" d="M 1.65039 30L 1.65039 15.7812L 6.29883 15.7812C 7.8418 15.7812 9.00065 16.1003 9.77539 16.7383C 10.5566 17.3763 10.9473 18.3203 10.9473 19.5703C 10.9473 20.2344 10.7585 20.8236 10.3809 21.3379C 10.0033 21.8457 9.48893 22.2396 8.83789 22.5195C 9.60612 22.7344 10.2116 23.1445 10.6543 23.75C 11.1035 24.349 11.3281 25.0651 11.3281 25.8984C 11.3281 27.1745 10.9147 28.1771 10.0879 28.9062C 9.26107 29.6354 8.09245 30 6.58203 30L 1.65039 30ZM 3.52539 23.3496L 3.52539 28.4668L 6.62109 28.4668C 7.49349 28.4668 8.18034 28.2422 8.68164 27.793C 9.18945 27.3372 9.44336 26.7122 9.44336 25.918C 9.44336 24.2057 8.51237 23.3496 6.65039 23.3496L 3.52539 23.3496ZM 3.52539 21.8457L 6.35742 21.8457C 7.17773 21.8457 7.83203 21.6406 8.32031 21.2305C 8.8151 20.8203 9.0625 20.2637 9.0625 19.5605C 9.0625 18.7793 8.83464 18.2129 8.37891 17.8613C 7.92318 17.5033 7.22982 17.3242 6.29883 17.3242L 3.52539 17.3242L 3.52539 21.8457ZM 15.8008 23.0762L 18.5449 23.0762C 19.7428 23.0892 20.6901 23.4017 21.3867 24.0137C 22.0833 24.6257 22.4316 25.4557 22.4316 26.5039C 22.4316 27.5586 22.0736 28.4049 21.3574 29.043C 20.6413 29.681 19.6777 30 18.4668 30L 13.9941 30L 13.9941 19.4336L 15.8008 19.4336L 15.8008 23.0762ZM 26.2012 30L 24.3848 30L 24.3848 19.4336L 26.2012 19.4336L 26.2012 30ZM 15.8008 24.5508L 15.8008 28.5254L 18.4863 28.5254C 19.1634 28.5254 19.6875 28.3529 20.0586 28.0078C 20.4297 27.6562 20.6152 27.1777 20.6152 26.5723C 20.6152 25.9863 20.4329 25.5078 20.0684 25.1367C 19.7103 24.7591 19.2057 24.5638 18.5547 24.5508L 15.8008 24.5508ZM 33.9941 20.0391C 35.3223 20.0391 36.3835 20.485 37.1777 21.377C 37.9785 22.2624 38.3789 23.431 38.3789 24.8828L 38.3789 25.0488C 38.3789 26.0449 38.1868 26.9368 37.8027 27.7246C 37.4186 28.5059 36.8652 29.1146 36.1426 29.5508C 35.4264 29.9805 34.5996 30.1953 33.6621 30.1953C 32.2428 30.1953 31.1003 29.7233 30.2344 28.7793C 29.3685 27.8288 28.9355 26.556 28.9355 24.9609L 28.9355 24.082C 28.9355 21.862 29.3457 20.0977 30.166 18.7891C 30.9928 17.4805 32.2103 16.6829 33.8184 16.3965C 34.7298 16.2337 35.3451 16.0352 35.6641 15.8008C 35.9831 15.5664 36.1426 15.2441 36.1426 14.834L 37.627 14.834C 37.627 15.6478 37.4414 16.2826 37.0703 16.7383C 36.7057 17.194 36.1198 17.5163 35.3125 17.7051L 33.9648 18.0078C 32.8906 18.2617 32.0833 18.6914 31.543 19.2969C 31.0091 19.8958 30.6608 20.6966 30.498 21.6992C 31.4551 20.5924 32.6204 20.0391 33.9941 20.0391ZM 33.6426 21.5234C 32.7572 21.5234 32.054 21.8229 31.5332 22.4219C 31.0124 23.0143 30.752 23.8379 30.752 24.8926L 30.752 25.0488C 30.752 26.1816 31.0124 27.0801 31.5332 27.7441C 32.0605 28.4017 32.7702 28.7305 33.6621 28.7305C 34.5605 28.7305 35.2702 28.3984 35.791 27.7344C 36.3118 27.0703 36.5723 26.1003 36.5723 24.8242C 36.5723 23.8281 36.3086 23.0306 35.7812 22.4316C 35.2604 21.8262 34.5475 21.5234 33.6426 21.5234ZM 44.7949 30.1953C 43.3626 30.1953 42.1973 29.7266 41.2988 28.7891C 40.4004 27.8451 39.9512 26.5853 39.9512 25.0098L 39.9512 24.6777C 39.9512 23.6296 40.1497 22.6953 40.5469 21.875C 40.9505 21.0482 41.5104 20.4036 42.2266 19.9414C 42.9492 19.4727 43.7305 19.2383 44.5703 19.2383C 45.944 19.2383 47.0117 19.6908 47.7734 20.5957C 48.5352 21.5007 48.916 22.7962 48.916 24.4824L 48.916 25.2344L 41.7578 25.2344C 41.7839 26.276 42.0866 27.1191 42.666 27.7637C 43.252 28.4017 43.9941 28.7207 44.8926 28.7207C 45.5306 28.7207 46.071 28.5905 46.5137 28.3301C 46.9564 28.0697 47.3438 27.7246 47.6758 27.2949L 48.7793 28.1543C 47.8939 29.515 46.5658 30.1953 44.7949 30.1953ZM 44.5703 20.7227C 43.8411 20.7227 43.2292 20.9896 42.7344 21.5234C 42.2396 22.0508 41.9336 22.793 41.8164 23.75L 47.1094 23.75L 47.1094 23.6133C 47.0573 22.6953 46.8099 21.9857 46.3672 21.4844C 45.9245 20.9766 45.3255 20.7227 44.5703 20.7227ZM 59.9414 24.834C 59.9414 26.4421 59.5736 27.7376 58.8379 28.7207C 58.1022 29.7038 57.1061 30.1953 55.8496 30.1953C 54.5671 30.1953 53.5579 29.7884 52.8223 28.9746L 52.8223 34.0625L 51.0156 34.0625L 51.0156 19.4336L 52.666 19.4336L 52.7539 20.6055C 53.4896 19.694 54.5117 19.2383 55.8203 19.2383C 57.0898 19.2383 58.0924 19.7168 58.8281 20.6738C 59.5703 21.6309 59.9414 22.9622 59.9414 24.668L 59.9414 24.834ZM 58.1348 24.6289C 58.1348 23.4375 57.8809 22.4967 57.373 21.8066C 56.8652 21.1165 56.1686 20.7715 55.2832 20.7715C 54.1895 20.7715 53.3691 21.2565 52.8223 22.2266L 52.8223 27.2754C 53.3626 28.2389 54.1895 28.7207 55.3027 28.7207C 56.1686 28.7207 56.8555 28.3789 57.3633 27.6953C 57.8776 27.0052 58.1348 25.9831 58.1348 24.6289ZM 69.082 19.4336L 70.8887 19.4336L 70.8887 30L 69.082 30L 69.082 22.2949L 64.209 30L 62.4023 30L 62.4023 19.4336L 64.209 19.4336L 64.209 27.1484L 69.082 19.4336ZM 81.6406 20.8984L 78.0957 20.8984L 78.0957 30L 76.2891 30L 76.2891 20.8984L 72.8125 20.8984L 72.8125 19.4336L 81.6406 19.4336L 81.6406 20.8984ZM 87.002 30.1953C 85.5697 30.1953 84.4043 29.7266 83.5059 28.7891C 82.6074 27.8451 82.1582 26.5853 82.1582 25.0098L 82.1582 24.6777C 82.1582 23.6296 82.3568 22.6953 82.7539 21.875C 83.1576 21.0482 83.7174 20.4036 84.4336 19.9414C 85.1562 19.4727 85.9375 19.2383 86.7773 19.2383C 88.151 19.2383 89.2188 19.6908 89.9805 20.5957C 90.7422 21.5007 91.123 22.7962 91.123 24.4824L 91.123 25.2344L 83.9648 25.2344C 83.9909 26.276 84.2936 27.1191 84.873 27.7637C 85.459 28.4017 86.2012 28.7207 87.0996 28.7207C 87.7376 28.7207 88.278 28.5905 88.7207 28.3301C 89.1634 28.0697 89.5508 27.7246 89.8828 27.2949L 90.9863 28.1543C 90.1009 29.515 88.7728 30.1953 87.002 30.1953ZM 86.7773 20.7227C 86.0482 20.7227 85.4362 20.9896 84.9414 21.5234C 84.4466 22.0508 84.1406 22.793 84.0234 23.75L 89.3164 23.75L 89.3164 23.6133C 89.2643 22.6953 89.0169 21.9857 88.5742 21.4844C 88.1315 20.9766 87.5326 20.7227 86.7773 20.7227ZM 97.793 24.9121C 97.793 23.1478 98.1348 21.7611 98.8184 20.752C 99.502 19.7428 100.439 19.2383 101.631 19.2383C 102.184 19.2383 102.669 19.3327 103.086 19.5215L 103.086 15L 104.893 15L 104.893 19.5801C 105.348 19.3522 105.882 19.2383 106.494 19.2383C 107.692 19.2383 108.633 19.7428 109.316 20.752C 110 21.7611 110.342 23.2161 110.342 25.1172C 110.342 26.6732 110 27.9102 109.316 28.8281C 108.639 29.7461 107.705 30.2051 106.514 30.2051C 105.882 30.2051 105.342 30.1009 104.893 29.8926L 104.893 34.0625L 103.086 34.0625L 103.086 29.9219C 102.656 30.1107 102.165 30.2051 101.611 30.2051C 100.426 30.2051 99.4922 29.7461 98.8086 28.8281C 98.1315 27.9102 97.793 26.6536 97.793 25.0586L 97.793 24.9121ZM 108.535 24.9121C 108.535 23.584 108.307 22.5553 107.852 21.8262C 107.396 21.0905 106.768 20.7227 105.967 20.7227C 105.557 20.7227 105.199 20.7878 104.893 20.918L 104.893 28.5645C 105.186 28.6751 105.55 28.7305 105.986 28.7305C 106.794 28.7305 107.419 28.418 107.861 27.793C 108.311 27.168 108.535 26.2077 108.535 24.9121ZM 99.5996 25.1172C 99.5996 26.3021 99.8112 27.2005 100.234 27.8125C 100.658 28.4245 101.266 28.7305 102.061 28.7305C 102.438 28.7305 102.78 28.6719 103.086 28.5547L 103.086 20.8887C 102.812 20.778 102.477 20.7227 102.08 20.7227C 101.286 20.7227 100.674 21.0775 100.244 21.7871C 99.8145 22.4967 99.5996 23.6068 99.5996 25.1172ZM 119.219 30C 119.115 29.7917 119.03 29.4206 118.965 28.8867C 118.125 29.7591 117.122 30.1953 115.957 30.1953C 114.915 30.1953 114.059 29.9023 113.389 29.3164C 112.725 28.724 112.393 27.9753 112.393 27.0703C 112.393 25.9701 112.809 25.1172 113.643 24.5117C 114.482 23.8997 115.661 23.5938 117.178 23.5938L 118.936 23.5938L 118.936 22.7637C 118.936 22.1322 118.747 21.6309 118.369 21.2598C 117.992 20.8822 117.435 20.6934 116.699 20.6934C 116.055 20.6934 115.514 20.8561 115.078 21.1816C 114.642 21.5072 114.424 21.901 114.424 22.3633L 112.607 22.3633C 112.607 21.8359 112.793 21.3281 113.164 20.8398C 113.542 20.3451 114.049 19.9544 114.688 19.668C 115.332 19.3815 116.038 19.2383 116.807 19.2383C 118.024 19.2383 118.978 19.5443 119.668 20.1562C 120.358 20.7617 120.716 21.5983 120.742 22.666L 120.742 27.5293C 120.742 28.4993 120.866 29.2708 121.113 29.8438L 121.113 30L 119.219 30ZM 116.221 28.623C 116.787 28.623 117.324 28.4766 117.832 28.1836C 118.34 27.8906 118.708 27.5098 118.936 27.041L 118.936 24.873L 117.52 24.873C 115.306 24.873 114.199 25.5208 114.199 26.8164C 114.199 27.3828 114.388 27.8255 114.766 28.1445C 115.143 28.4635 115.628 28.623 116.221 28.623ZM 130.41 19.4336L 132.217 19.4336L 132.217 30L 130.41 30L 130.41 22.2949L 125.537 30L 123.73 30L 123.73 19.4336L 125.537 19.4336L 125.537 27.1484L 130.41 19.4336ZM 130.898 15.5859C 130.898 16.3737 130.628 17.0085 130.088 17.4902C 129.554 17.9655 128.851 18.2031 127.979 18.2031C 127.106 18.2031 126.4 17.9622 125.859 17.4805C 125.319 16.9987 125.049 16.3672 125.049 15.5859L 126.523 15.5859C 126.523 16.0417 126.647 16.3997 126.895 16.6602C 127.142 16.9141 127.503 17.041 127.979 17.041C 128.434 17.041 128.789 16.9141 129.043 16.6602C 129.303 16.4062 129.434 16.0482 129.434 15.5859L 130.898 15.5859ZM 143.779 19.4336L 143.779 30L 141.963 30L 141.963 20.9277L 138.369 20.9277L 138.154 24.8828C 138.037 26.6992 137.731 27.998 137.236 28.7793C 136.748 29.5605 135.97 29.9674 134.902 30L 134.18 30L 134.18 28.4082L 134.697 28.3691C 135.283 28.304 135.703 27.9655 135.957 27.3535C 136.211 26.7415 136.374 25.6087 136.445 23.9551L 136.641 19.4336L 143.779 19.4336Z"/>
</defs>
</svg>
