<svg id="svg346" xmlns="http://www.w3.org/2000/svg" viewBox="0 0 655.19 789.96"><defs><style>.cls-1,.cls-12{fill:#fff;}.cls-1,.cls-12,.cls-2,.cls-5{stroke:#000;}.cls-1,.cls-12,.cls-2,.cls-3,.cls-4,.cls-5,.cls-6,.cls-7{stroke-linejoin:bevel;}.cls-1,.cls-2,.cls-3,.cls-4,.cls-6,.cls-7{stroke-width:0.22px;}.cls-2,.cls-3,.cls-4,.cls-5,.cls-6{fill:none;}.cls-3{stroke:#333;}.cls-4{stroke:#5b5b5b;}.cls-10,.cls-11,.cls-12,.cls-5,.cls-8,.cls-9{stroke-width:0.57px;}.cls-6,.cls-7{stroke:#990026;}.cls-7{fill:#595959;}.cls-8{fill:#8d918d;}.cls-10,.cls-11,.cls-8,.cls-9{stroke:#1b1918;}.cls-9{fill:#cfd7d9;}.cls-10{fill:#e0aa4c;}.cls-11{fill:#f6d83e;}</style></defs><title>logo</title><path id="path2" class="cls-1" d="M755.19,342l-.21,2.6-.45,2.36-.69,2.12-.93,1.89-1.17,1.65L750.34,354l-1.65,1.18-1.84.93-2,.64-2.12.35-2.26.07-2.4-.22-2.54-.5-2.68-.78-3.33-1.32-3.11-1.66-2.89-2-2.68-2.35-2.46-2.7-2.25-3.05-2-3.4-1.79-3.7-1.51-3.93-1.23-4.16-1-4.4-.68-4.63-.4-4.87-.12-5.1.15-5.11.42-4.69.7-4.28,1-3.86,1.25-3.44,1.53-3,1.81-2.6,2.06-2.14,2.27-1.63,2.49-1.12,2.7-.61,2.92-.09,3.13.42,3.35.94,2.81,1.1,2.65,1.29,2.48,1.47,2.31,1.66,2.15,1.84,2,2,1.81,2.2,1.6,2.33,1.35,2.4,1.11,2.48.86,2.55.61,2.62.37,2.69.12,2.76-8.22-3-.07-1.6-.22-1.57-.37-1.53-.52-1.5-.67-1.46-.82-1.43-1-1.39-1.08-1.32-1.18-1.21L740,289.5l-1.36-1-1.45-.87-1.55-.76-1.64-.64-2.44-.68-2.28-.3-2.11.08-1.95.45-1.78.83-1.62,1.21-1.46,1.58-1.28,1.94L718,293.62l-.89,2.59-.69,2.92-.5,3.24-.3,3.57-.11,3.89.08,4.2.27,4,.47,3.77.66,3.55.85,3.34,1,3.12,1.24,2.9,1.41,2.65,1.57,2.37,1.73,2.09,1.89,1.8,2.05,1.52,2.21,1.24,2.37,1,1.59.47,1.5.3,1.42.13,1.33,0,1.25-.2,1.16-.37,1.08-.54,1-.7.85-.85.73-1,.61-1.15.49-1.3.36-1.45.24-1.6Z" transform="translate(-152.74 -188.68)"/><path id="path4" class="cls-1" d="M655.92,332.05v-76.4l3.88,1,4,1v30.19l4.76,1.21,1.8.41,1.67.26,1.53.11,1.4,0,1.27-.19,1.14-.35,1-.5.88-.66.77-.82.66-1,.56-1.16.45-1.32.34-1.49.23-1.66,0-.48.28-2.34.35-2.14.43-1.94.51-1.73.59-1.53.67-1.33.75-1.12.83-.92.91-.72,1-.51,1.08-.31,1.16-.11,1.24.1,1.33.3,3.39,1v9.43l-1.65-.5-.65-.15-.61-.06-.57,0-.53.13-.49.23-.44.32-.4.42-.36.51-.32.61-.29.7-.25.79-.21.89-.17,1-.13,1.07-.4,4.36-.31,2.19-.5,2-.7,1.72-.89,1.49-1.08,1.26-1.27,1-1.46.79-1.42.47,1.25,1.16,1.68,1.79,1.52,2,1.35,2.11,1.19,2.27,1,2.43.85,2.59.69,2.75,4,19.14.22,1.06.21,1,.2.93.2.86.19.79.18.72.17.65.17.6.17.56.17.53.18.5.18.46.18.43.18.39-4.12-1.2-4.16-1.18-.82-3.45-1.26-5.84-3-14.36-.54-2.21-.64-2.08-.74-1.94-.84-1.8-.94-1.67-1-1.53-1.14-1.39-1.25-1.26L676,302.13l-1.51-1-1.63-.93-1.76-.82-1.89-.71-2-.59-3.42-.86V334l-3.93-1Z" transform="translate(-152.74 -188.68)"/><path id="path6" class="cls-1" d="M609,322.29V245.52l34.26,7.11v8.62l-26.5-5.63v24.29l26.5,5.33v8.62l-26.5-5.31v26.49l26.5,5.63v8.62Z" transform="translate(-152.74 -188.68)"/><path id="path8" class="cls-1" d="M587.85,250.6l-23.13-3.18v43.26l-.17,4-.3,3.61-.43,3.21-.55,2.81-.68,2.41-.8,2-1,1.66-1.13,1.37-1.31,1.08-1.48.79-1.66.51-1.83.22-2-.07-3.75-.36v-9l2.13.2,1.17,0,1.06-.16.94-.34.83-.52.72-.71.6-.89.49-1.08.4-1.33.34-1.66.28-2,.22-2.31.15-2.63.09-3V237.85l38.43,5.31V320l-3.77-.6-3.89-.58Z" transform="translate(-152.74 -188.68)"/><path id="path10" class="cls-1" d="M501.81,311.12l-3.75-.1-3.87-.08v-77.2l43.7,2.26v77.12l-3.75-.3-3.88-.28V244.09l-28.46-1.47Z" transform="translate(-152.74 -188.68)"/><path id="path12" class="cls-1" d="M428.92,312.63l-3.78.28-3.86.3V236.1l6.14-.5,6.19-.45L451,298.8l16.77-65.1,6.15-.08,6.22,0v77.21h-3.76l-3.86,0V241.62l-17.72,69.63-3.81.15-3.81.17-18.26-68Z" transform="translate(-152.74 -188.68)"/><path id="path14" class="cls-1" d="M308.09,331.22V254.79l3.83-.93,3.92-.92v30.25l4.63-1.06,1.78-.46,1.65-.54,1.52-.63,1.39-.72,1.26-.81,1.13-.9,1-1,.87-1.09.77-1.2.66-1.32.55-1.43.44-1.55.33-1.66.23-1.78,0-.5.28-2.5.36-2.33.44-2.16.51-2,.59-1.83.67-1.67.74-1.5.82-1.33.9-1.17,1-1,1.06-.84,1.14-.67,1.22-.51,1.3-.34,3.29-.63v9.52l-1.64.31-.64.16-.6.24-.56.32-.52.39-.48.47-.44.54-.4.62-.36.69-.32.77-.28.85-.25.92-.21,1-.17,1.07-.13,1.15-.4,4.59-.31,2.36-.5,2.22-.68,2.07-.87,1.93L337.57,280l-1.25,1.64-1.43,1.5-1.4,1.16,1.24.56,1.66,1,1.5,1.24,1.34,1.48,1.18,1.72,1,2,.85,2.2.69,2.44L347,314.32l.23,1,.22.9.21.84.2.77.19.7.19.64.18.57.17.52.17.48.18.45.18.42.36.72-3.87,1.06-4.09.77L340.7,321l-1.3-5.28-3.07-13-.54-2-.64-1.78-.74-1.6-.83-1.41-.93-1.23-1-1-1.13-.85-1.24-.67-1.37-.5-1.49-.33-1.62-.15-1.75,0-1.88.2-2,.37-3.31.76v36.86l-3.75.88Z" transform="translate(-152.74 -188.68)"/><path id="path16" class="cls-1" d="M205.26,361.93V286.69l3.8-1.48,4.29-1.48v75.35l-3.7,1.41Z" transform="translate(-152.74 -188.68)"/><path id="path26" class="cls-2" d="M450.75,208.69l23.9-.46,5.65,0,5.65,0,23.9.46,23.9,1.13,23.91,1.79,23.93,2.46,24,3.13,24,3.8,24.07,4.47,24.14,5.15L702,236.45l24.3,6.49,24.41,7.17,24.38,7.8,1.58.57,1.37.57,1.23.59,1.11.6,1,.61.89.61.8.61.71.61.64.61.57.61.51.61.45.61.41.61.36.61.32.61.28.61.24.62.21.62.17.61.14.61.11.61.08.59,0,.58,0,.55,0,1.14v142l-.1,27.88L788,470.86l-.38,27-.66,26.46-1.06,25.92-1.58,25.37-2.21,24.82-3,24.25-3.81,23.67-4.78,23.08-5.85,22.5-7,21.91-8.33,21.34-9.74,20.79L728.28,778.2l-12.93,19.75-14.73,19.26L684,836l-18.76,18.33-21,17.87-23.38,17.4-25.91,16.93L566.33,923,535,938.88l-34.64,15.54-2.95,1.31-2.44.92-2.38.75-2.33.6-2.28.46-2.23.33-2.18.21-2.12.1-1.11.09-1.11-.09-2.12-.1-2.18-.21-2.23-.33-2.28-.46-2.33-.6-2.38-.75-2.44-.92-2.95-1.31-34.64-15.54L394.28,923,365.7,906.53l-25.91-16.93-23.38-17.4-21-17.87L276.66,836,260,817.21l-14.73-19.26L232.33,778.2l-11.27-20.26-9.74-20.79L203,715.8l-7-21.91-5.85-22.5-4.78-23.08-3.81-23.67-3-24.25-2.21-24.82-1.58-25.37-1.06-25.92L173,497.83l-.38-27-.22-27.48-.19-27.88v-142l.06-1.14,0-.55,0-.58.08-.59.11-.61.14-.61.17-.61.21-.62.24-.62.28-.61.32-.61.36-.61.4-.61.45-.61.51-.61.57-.61.64-.61.71-.61.8-.61.89-.61,1-.61,1.11-.6,1.23-.59,1.37-.57,1.58-.57,24.38-7.8,24.41-7.17,24.3-6.49,24.21-5.82L307,225.49,331,221l24-3.8,24-3.13,23.93-2.46,23.91-1.79Z" transform="translate(-152.74 -188.68)"/><path id="path28" class="cls-2" d="M480.3,189.11l-5.75-.14-24.44.47-24.44,1.15-24.44,1.83-24.46,2.52-24.49,3.2L327.76,202l-24.57,4.57-24.63,5.25-24.69,5.93-24.77,6.62-24.85,7.3-25,8-2.36.86-2.23.93-2.11,1-2,1.07-1.86,1.14-1.74,1.2-1.63,1.25-1.51,1.3-1.4,1.34-1.29,1.38L160,252.57,158.91,254l-1,1.48L157,257l-.79,1.52-.7,1.53-.61,1.54-.52,1.54-.43,1.54-.35,1.54-.27,1.53-.19,1.51-.12,1.49,0,1.47,0,1.44V415.55l.1,28,.22,27.56.39,27.14.67,26.71,1.08,26.28L157.12,577l2.26,25.38,3,24.92,3.94,24.45,5,24,6.11,23.49,7.38,23,8.78,22.49,10.29,22,11.93,21.45,13.7,20.92,15.58,20.38L262.7,849.3l19.72,19.27,22,18.71,24.36,18.13L355.62,923l29.49,17,32.23,16.35L452.45,972l3.48,1.54,3.44,1.3,3.39,1.07,3.33.85,3.27.66,3.19.47,3.11.3,3,.15,1.61-.08,1.61.08,3-.15,3.11-.3,3.19-.47,3.27-.66,3.33-.85,3.39-1.07,3.44-1.3,3.48-1.54,35.11-15.74,32.23-16.35L605,923l26.86-17.55,24.36-18.13,22-18.71,19.72-19.27,17.59-19.83,15.58-20.38,13.7-20.92,11.93-21.45,10.29-22,8.78-22.49,7.38-23,6.11-23.49,5-24,3.94-24.45,3-24.92L803.49,577l1.61-25.84,1.08-26.28.67-26.71.39-27.14.22-27.56.19-28V273.65l-.06-1.44,0-1.47-.12-1.49-.19-1.51-.27-1.53-.35-1.54-.43-1.54-.52-1.54-.61-1.54-.7-1.53-.79-1.52-.88-1.5-1-1.48-1.08-1.45-1.19-1.42-1.29-1.38-1.4-1.34-1.51-1.3-1.63-1.25-1.74-1.2L790,243.54l-2-1.07-2.11-1-2.23-.93-2.36-.86-25-8-24.85-7.3-24.77-6.62L682,211.84l-24.63-5.25L632.85,202l-24.52-3.88-24.49-3.2-24.46-2.52-24.44-1.83-24.44-1.15L486.05,189Z" transform="translate(-152.74 -188.68)"/><path id="path30" class="cls-2" d="M354,514.88l-61.35-46.51-4.91-3.64-.48-.35,0,.52-.26,5.6-.6,6.09-.9,6-1.2,6-1.5,5.91-1.8,5.83-2.09,5.73-2.37,5.62-2.65,5.5-2.93,5.36-3.2,5.22-3.47,5.06-3.74,4.89-6.11,8.43L249.28,555l-4.07,9.16-3.05,9.41-2,9.59-1,9.7v9.74l1,9.7,2,9.59,3.05,9.41,4.07,9.16,5.09,8.83,6.11,8.43,3.74,4.89,3.47,5.06,3.2,5.21,2.93,5.36,2.65,5.5,2.37,5.62,2.09,5.73,1.8,5.83,1.5,5.91,1.2,6,.9,6,.6,6.09.26,5.6,0,.52.48-.35,5.34-4L354,680.53" transform="translate(-152.74 -188.68)"/><path id="path32" class="cls-2" d="M356.45,511.6l-61.37-46.52-4.93-3.65-6.67-4.93-.39,8.22-.26,5.49-.58,5.88-.87,5.84-1.16,5.78-1.45,5.71L277,499l-2,5.53L272.72,510l-2.56,5.31-2.83,5.18-3.09,5-3.35,4.88-3.71,4.85-6.26,8.64-5.3,9.2-4.24,9.55-3.19,9.82-2.12,10L235,592.62v10.17l1.06,10.13,2.12,10,3.19,9.82,4.24,9.55,5.3,9.2,6.26,8.64,3.71,4.85,3.35,4.88,3.09,5,2.83,5.18,2.56,5.31,2.29,5.43,2,5.53,1.74,5.63,1.45,5.71,1.16,5.78.87,5.84.58,5.88.26,5.49.39,8.22,6.67-4.93,5.36-4,60.95-46.2" transform="translate(-152.74 -188.68)"/><path id="path34" class="cls-2" d="M363.92,694l-63.8,50-9.6,7.53L264.3,772.16l-.92.72.35-1.2,2-7,1.73-8.24,1.07-8.3.43-8.31-.21-8.29-.84-8.24-1.47-8.14-2.09-8-2.7-7.84-3.31-7.64-3.91-7.4L250,677.2l-5.09-6.8-7.32-10.09-6.1-10.64-4.88-11.08-3.66-11.43-2.44-11.68-1.22-11.83V591.76l1.22-11.83,2.44-11.68,3.66-11.43,4.88-11.08,6.1-10.64L244.87,525l5.09-6.8,4.5-7.12,3.91-7.4,3.31-7.64,2.7-7.84,2.09-8,1.47-8.14.84-8.24.21-8.29-.43-8.31-1.07-8.3-1.73-8.24-2-7-.35-1.2.92.72,26.22,20.57,10.09,7.91,63.31,49.66" transform="translate(-152.74 -188.68)"/><path id="path36" class="cls-2" d="M631.37,597.7A151.07,151.07,0,1,0,480.3,748.77,151.07,151.07,0,0,0,631.37,597.7Z" transform="translate(-152.74 -188.68)"/><path id="path38" class="cls-2" d="M614.48,597.7A134.18,134.18,0,1,0,480.3,731.88,134.18,134.18,0,0,0,614.48,597.7Z" transform="translate(-152.74 -188.68)"/><path id="path40" class="cls-2" d="M606.65,514.88,668,468.37l4.91-3.64.48-.35,0,.52.26,5.6.6,6.09.9,6,1.2,6,1.5,5.91,1.8,5.83,2.09,5.73,2.37,5.62,2.65,5.5,2.93,5.36,3.2,5.22,3.47,5.06,3.74,4.89,6.11,8.43,5.09,8.83,4.07,9.16,3.05,9.41,2,9.59,1,9.7v9.74l-1,9.7-2,9.59-3.05,9.41-4.07,9.16-5.09,8.83-6.11,8.43-3.74,4.89-3.47,5.06-3.2,5.21-2.93,5.36-2.65,5.5-2.37,5.62-2.09,5.73-1.8,5.83-1.5,5.91-1.2,6-.9,6-.6,6.09-.26,5.6,0,.52-.48-.35-5.34-4-60.93-46.19" transform="translate(-152.74 -188.68)"/><path id="path42" class="cls-2" d="M604.16,511.6l61.37-46.52,4.93-3.65,6.67-4.93.39,8.22.26,5.49.58,5.88.87,5.84,1.16,5.78,1.45,5.71,1.74,5.63,2,5.53,2.29,5.43,2.56,5.31,2.83,5.18,3.09,5,3.35,4.88,3.71,4.85,6.26,8.64,5.3,9.2,4.25,9.55,3.19,9.82,2.12,10,1.06,10.13v10.17l-1.06,10.13-2.12,10-3.19,9.82L715,642.31l-5.3,9.2-6.26,8.64L699.73,665l-3.35,4.88-3.09,5-2.83,5.18-2.56,5.31-2.29,5.43-2,5.53L681.84,702l-1.45,5.71-1.16,5.78-.87,5.84-.58,5.88-.26,5.49-.39,8.22L670.47,734l-5.36-4-60.95-46.2" transform="translate(-152.74 -188.68)"/><path id="path44" class="cls-2" d="M596.69,694l63.8,50,9.6,7.53,26.22,20.57.92.72-.35-1.2-2-7-1.73-8.24-1.07-8.3-.43-8.31.21-8.29.84-8.24,1.47-8.14,2.09-8,2.7-7.84,3.31-7.64,3.91-7.4,4.5-7.12,5.09-6.8,7.32-10.09,6.1-10.64L734,638.59l3.66-11.43,2.44-11.68,1.22-11.83V591.76l-1.22-11.83-2.44-11.68L734,556.82l-4.88-11.08-6.1-10.64L715.73,525l-5.09-6.8-4.5-7.12-3.91-7.4-3.31-7.64-2.7-7.84-2.09-8-1.47-8.14-.84-8.24-.21-8.29.43-8.31,1.07-8.3,1.73-8.24,2-7,.35-1.2-.92.72-26.22,20.57L660,451.72l-63.31,49.66" transform="translate(-152.74 -188.68)"/><path id="path46" class="cls-2" d="M397.48,471.36,351,410l-3.64-4.91-.35-.48.52,0,5.6-.26,6.09-.6,6-.9,6-1.2,5.91-1.5,5.83-1.8,5.73-2.09,5.62-2.37,5.5-2.65,5.36-2.93,5.21-3.2,5.06-3.47,4.89-3.74,8.43-6.11,8.83-5.09,9.16-4.07,9.41-3.05,9.59-2,9.7-1h9.74l9.7,1,9.59,2,9.41,3.05,9.16,4.07,8.83,5.09,8.43,6.11,4.89,3.74,5.06,3.47,5.22,3.2,5.36,2.93,5.5,2.65,5.62,2.37,5.73,2.09,5.83,1.8,5.91,1.5,6,1.2,6,.9,6.09.6,5.6.26.52,0-.35.48-4,5.34-46.19,60.93" transform="translate(-152.74 -188.68)"/><path id="path48" class="cls-2" d="M394.2,473.85l-46.52-61.37L344,407.54l-4.93-6.67,8.22-.39,5.49-.26,5.88-.58,5.84-.87,5.78-1.16,5.71-1.45,5.63-1.74,5.53-2,5.43-2.29,5.31-2.56,5.18-2.83,5-3.09,4.88-3.35,4.85-3.71,8.64-6.26,9.2-5.3,9.55-4.25,9.82-3.19,10-2.12,10.13-1.06h10.17l10.13,1.06,10,2.12,9.82,3.19L524.9,363l9.2,5.3,8.64,6.26,4.85,3.71,4.88,3.35,5,3.09,5.18,2.83,5.31,2.56,5.43,2.29,5.53,2,5.63,1.74,5.71,1.45,5.78,1.16,5.84.87,5.88.58,5.49.26,8.22.39-4.93,6.67-4,5.36-46.2,60.95" transform="translate(-152.74 -188.68)"/><path id="path50" class="cls-2" d="M576.62,481.32l50-63.8,7.53-9.6,20.57-26.22.72-.92-1.2.35-7,2-8.24,1.73-8.3,1.07-8.31.43-8.29-.21-8.24-.84-8.14-1.47-8-2.09-7.84-2.7-7.64-3.31-7.4-3.91-7.12-4.5-6.8-5.09L542.91,355l-10.64-6.1L521.19,344l-11.43-3.66-11.68-2.44-11.83-1.22H474.36l-11.83,1.22-11.68,2.44L439.42,344l-11.08,4.88L417.7,355l-10.09,7.32-6.8,5.09-7.12,4.5-7.4,3.91-7.64,3.31-7.84,2.7-8,2.09-8.14,1.47-8.24.84-8.29.21-8.31-.43-8.3-1.07-8.24-1.73-7-2-1.2-.35.72.92,20.57,26.22L334.32,418,384,481.32" transform="translate(-152.74 -188.68)"/><path id="path52" class="cls-2" d="M397.48,724,351,785.4l-3.64,4.91-.35.48.52,0,5.6.26,6.09.6,6,.9,6,1.21,5.91,1.5,5.83,1.8,5.73,2.09,5.62,2.37,5.5,2.65,5.36,2.93,5.21,3.2,5.06,3.47,4.89,3.74,8.43,6.11,8.83,5.09,9.16,4.07,9.41,3.05,9.59,2,9.7,1h9.74l9.7-1,9.59-2,9.41-3.05,9.16-4.07,8.83-5.09,8.43-6.11,4.89-3.74,5.06-3.47,5.22-3.2,5.36-2.93,5.5-2.65,5.62-2.37,5.73-2.09,5.83-1.8,5.91-1.5,6-1.21,6-.9,6.09-.6,5.6-.26.52,0-.35-.48-4-5.34L563.13,724" transform="translate(-152.74 -188.68)"/><path id="path54" class="cls-2" d="M394.2,721.56l-46.52,61.37L344,787.86l-4.93,6.67,8.22.39,5.49.26,5.88.58,5.84.87,5.78,1.16,5.71,1.45,5.63,1.74,5.53,2,5.43,2.29,5.31,2.56,5.18,2.83,5,3.09,4.88,3.35,4.85,3.71,8.64,6.26,9.2,5.3,9.55,4.25,9.82,3.19,10,2.12L475.22,843h10.17L495.52,842l10-2.12,9.82-3.19,9.55-4.25,9.2-5.3,8.64-6.26,4.85-3.71,4.88-3.35,5-3.09,5.18-2.83,5.31-2.56,5.43-2.29,5.53-2,5.63-1.74,5.71-1.45,5.78-1.16,5.84-.87,5.88-.58,5.49-.26,8.22-.39-4.93-6.67-4-5.36-46.2-60.94" transform="translate(-152.74 -188.68)"/><path id="path56" class="cls-2" d="M576.62,714.09l50,63.8,7.53,9.6,20.57,26.22.72.92-1.2-.35-7-2-8.24-1.73-8.3-1.07-8.31-.43-8.29.21-8.24.84-8.14,1.47-8,2.09-7.84,2.7-7.64,3.31-7.4,3.91L559.8,828l-6.8,5.09-10.09,7.32-10.64,6.1-11.08,4.88-11.43,3.66-11.68,2.44-11.83,1.22H474.36l-11.83-1.22-11.68-2.44-11.43-3.66-11.08-4.88-10.64-6.1-10.09-7.32-6.8-5.09-7.12-4.5-7.4-3.91-7.64-3.31-7.84-2.7-8-2.09-8.14-1.47-8.24-.84-8.29-.21-8.31.43-8.3,1.07-8.24,1.73-7,2-1.2.35.72-.92,20.57-26.22,7.91-10.09L384,714.09" transform="translate(-152.74 -188.68)"/><path id="path58" class="cls-2" d="M384.89,692,413,660.65" transform="translate(-152.74 -188.68)"/><path id="path60" class="cls-2" d="M398,703.69l40-44.61" transform="translate(-152.74 -188.68)"/><path id="path62" class="cls-3" d="M539.16,532.67l-15.31,17.48" transform="translate(-152.74 -188.68)"/><path id="path64" class="cls-2" d="M531.77,527.17,519.9,540.33" transform="translate(-152.74 -188.68)"/><path id="path66" class="cls-4" d="M388.3,695.37l30.8-34.27" transform="translate(-152.74 -188.68)"/><path id="path68" class="cls-4" d="M391,697.85l33-36.77" transform="translate(-152.74 -188.68)"/><path id="path70" class="cls-2" d="M526.39,560.49l19.54-22.31" transform="translate(-152.74 -188.68)"/><path id="path72" class="cls-3" d="M556.07,507.91l-4.27,4.7" transform="translate(-152.74 -188.68)"/><path id="path74" class="cls-2" d="M408.33,504.53l-13,11.57" transform="translate(-152.74 -188.68)"/><path id="path76" class="cls-2" d="M558.72,676.51l15.37,17.15" transform="translate(-152.74 -188.68)"/><path id="path78" class="cls-2" d="M552.28,504.53l13,11.57" transform="translate(-152.74 -188.68)"/><path id="path80" class="cls-2" d="M560.76,705.09,536,677.43" transform="translate(-152.74 -188.68)"/><path id="path82" class="cls-3" d="M603.25,545.9a18.53,18.53,0,0,1-13.22.48,94.26,94.26,0,0,1-32-22.06q-6.77-5.64-13.59-11.22a104.35,104.35,0,0,0-51.22-27.9,71.55,71.55,0,0,1,41,39.26A145.41,145.41,0,0,1,548,535.85a53,53,0,0,1,29.76,25.67,19.37,19.37,0,0,1-1.16,12" transform="translate(-152.74 -188.68)"/><path id="path84" class="cls-3" d="M404.54,507.91l4.27,4.7" transform="translate(-152.74 -188.68)"/><path id="path86" class="cls-3" d="M553.12,677.37l17.51,19.55" transform="translate(-152.74 -188.68)"/><path id="path88" class="cls-3" d="M548.51,677.76l19.37,21.6" transform="translate(-152.74 -188.68)"/><path id="path90" class="cls-2" d="M357.35,545.9a90.54,90.54,0,0,0,42.1-25.1l13.19-11.56a116.59,116.59,0,0,1,57.72-27.7,37.49,37.49,0,0,0,.23,4.55,101.07,101.07,0,0,0-41.77,41.08q-7.31,5.19-14.16,11A41.35,41.35,0,0,0,384,573.53a64.91,64.91,0,0,1-26.68-27.63Z" transform="translate(-152.74 -188.68)"/><path id="path92" class="cls-3" d="M421.45,532.67,449,564.18" transform="translate(-152.74 -188.68)"/><path id="path94" class="cls-3" d="M535.86,530.15,522.1,545.28" transform="translate(-152.74 -188.68)"/><path id="path96" class="cls-2" d="M552.24,504.5,548,509.24" transform="translate(-152.74 -188.68)"/><path id="path98" class="cls-2" d="M561.15,520.8l4.14-4.73" transform="translate(-152.74 -188.68)"/><path id="path100" class="cls-2" d="M603.25,545.9a90.57,90.57,0,0,1-42.1-25.1L548,509.24a116.55,116.55,0,0,0-57.72-27.7,37.49,37.49,0,0,1-.23,4.55,101.11,101.11,0,0,1,41.77,41.08q7.31,5.19,14.16,11a41.38,41.38,0,0,1,30.64,35.35,64.89,64.89,0,0,0,26.68-27.63Z" transform="translate(-152.74 -188.68)"/><path id="path102" class="cls-2" d="M428.84,527.17l27.89,30.9" transform="translate(-152.74 -188.68)"/><path id="path104" class="cls-3" d="M424.75,530.15l28,30.78" transform="translate(-152.74 -188.68)"/><path id="path106" class="cls-2" d="M443.21,570.76l-28.54-32.58" transform="translate(-152.74 -188.68)"/><path id="path108" class="cls-3" d="M558.75,510.3l-4.16,4.75" transform="translate(-152.74 -188.68)"/><path id="path110" class="cls-2" d="M400.11,657.83a69.23,69.23,0,0,0,63.22-10.93" transform="translate(-152.74 -188.68)"/><path id="path112" class="cls-3" d="M357.35,545.9a18.52,18.52,0,0,0,13.22.48,94.24,94.24,0,0,0,32-22.06q6.77-5.64,13.59-11.22a104.39,104.39,0,0,1,51.22-27.9,71.52,71.52,0,0,0-41,39.26,145.39,145.39,0,0,0-13.75,11.39,53,53,0,0,0-29.76,25.67,19.36,19.36,0,0,0,1.16,12" transform="translate(-152.74 -188.68)"/><path id="path114" class="cls-2" d="M530,592.86a186,186,0,0,0-3.66-32.37A73.81,73.81,0,0,0,519.75,540a60.51,60.51,0,0,0-22.25-26.16,40.77,40.77,0,0,0-39.35,0,30.74,30.74,0,0,0-10.24,10.24,17.66,17.66,0,0,0,0,20.19,20.57,20.57,0,0,0,19.92,6.42,8.58,8.58,0,0,0-.23,2.24" transform="translate(-152.74 -188.68)"/><path id="path116" class="cls-2" d="M408.37,504.5l4.29,4.75" transform="translate(-152.74 -188.68)"/><path id="path118" class="cls-3" d="M463.58,536a3.69,3.69,0,0,1-3.15,1.57" transform="translate(-152.74 -188.68)"/><path id="path120" class="cls-3" d="M523,578.67q-.9-8.59-2.63-17.06a67.63,67.63,0,0,0-6.16-19,54.35,54.35,0,0,0-19.84-23.49,34.61,34.61,0,0,0-33.09,0,24.58,24.58,0,0,0-8.18,8.29,11.51,11.51,0,0,0-.3,13,14.42,14.42,0,0,0,13.71,4.22" transform="translate(-152.74 -188.68)"/><path id="path122" class="cls-3" d="M497.28,647.54a4.4,4.4,0,1,0,4.61-4.23,4.4,4.4,0,0,0-4.61,4.23" transform="translate(-152.74 -188.68)"/><path id="path124" class="cls-2" d="M399.46,520.8l-4.14-4.73" transform="translate(-152.74 -188.68)"/><path id="path126" class="cls-2" d="M420.37,638.18a134.51,134.51,0,0,0,38.57,2.68" transform="translate(-152.74 -188.68)"/><path id="path128" class="cls-3" d="M466.48,544.72a5.21,5.21,0,0,0,4-5.92c-.44-2.72-1.93-4.63-4.67-4.35" transform="translate(-152.74 -188.68)"/><path id="path130" class="cls-2" d="M505.66,645.83a177.14,177.14,0,0,0,35-8.83" transform="translate(-152.74 -188.68)"/><path id="path132" class="cls-4" d="M400.11,657.83v-4.31" transform="translate(-152.74 -188.68)"/><path id="path134" class="cls-2" d="M426.23,639.32a177.11,177.11,0,0,0,62.24,8.17" transform="translate(-152.74 -188.68)"/><path id="path136" class="cls-2" d="M494.67,651.73a70.88,70.88,0,0,0,76.25,15.09v6.3" transform="translate(-152.74 -188.68)"/><path id="path138" class="cls-3" d="M463.58,536a2.56,2.56,0,0,1,2.22-1.54" transform="translate(-152.74 -188.68)"/><path id="path140" class="cls-3" d="M514.33,567.12q-.38-2.13-.81-4.25a60.7,60.7,0,0,0-5.62-17.28,47.42,47.42,0,0,0-17.12-20.48,27.68,27.68,0,0,0-26,.08,17.66,17.66,0,0,0-5.89,6.15,4.58,4.58,0,0,0-.55,4.87,7.49,7.49,0,0,0,2.13,1.35" transform="translate(-152.74 -188.68)"/><path id="path142" class="cls-3" d="M401.86,510.3l4.16,4.75" transform="translate(-152.74 -188.68)"/><path id="path144" class="cls-2" d="M464.43,640.42a170.56,170.56,0,0,0,74-9.58" transform="translate(-152.74 -188.68)"/><path id="path146" class="cls-3" d="M497.27,647.49a4.4,4.4,0,1,0-4.21,4.62,4.4,4.4,0,0,0,4.21-4.62" transform="translate(-152.74 -188.68)"/><path id="path148" class="cls-3" d="M433.81,631.68a3.74,3.74,0,1,0-.45,3.88" transform="translate(-152.74 -188.68)"/><path id="path150" class="cls-2" d="M483.25,647.66a76.76,76.76,0,0,0,87.67,25.46" transform="translate(-152.74 -188.68)"/><path id="path152" class="cls-2" d="M538.54,630.8a35,35,0,0,1-.8-4.73A116.76,116.76,0,0,0,530,592.86a84.33,84.33,0,0,0-15.72-25.74,47.14,47.14,0,0,0-34-16.39" transform="translate(-152.74 -188.68)"/><path id="path154" class="cls-2" d="M400.11,653.52a65.14,65.14,0,0,0,57.13-7.3" transform="translate(-152.74 -188.68)"/><path id="path156" class="cls-2" d="M423,625.12a116.78,116.78,0,0,1,7.6-32.26,84.35,84.35,0,0,1,15.72-25.74,47.17,47.17,0,0,1,34-16.39" transform="translate(-152.74 -188.68)"/><path id="path158" class="cls-2" d="M540.66,637l4.1-1.59a4.56,4.56,0,0,0-2.4-6.06l-3.95,1.5" transform="translate(-152.74 -188.68)"/><path id="path160" class="cls-2" d="M570.92,666.82A50.62,50.62,0,0,1,540.66,637" transform="translate(-152.74 -188.68)"/><path id="path162" class="cls-2" d="M400.11,653.52a136.19,136.19,0,0,1,19-16.25" transform="translate(-152.74 -188.68)"/><path id="path164" class="cls-3" d="M423.34,625.13a95,95,0,0,0,34.3,1.72" transform="translate(-152.74 -188.68)"/><path id="path166" class="cls-3" d="M428.56,630a3.73,3.73,0,1,0-1,5.71" transform="translate(-152.74 -188.68)"/><path id="path168" class="cls-5" d="M420.37,638.18a1.47,1.47,0,0,1-1.42-1.59" transform="translate(-152.74 -188.68)"/><path id="path170" class="cls-3" d="M447.39,632.32a4.08,4.08,0,1,0,0,4.11" transform="translate(-152.74 -188.68)"/><path id="path172" class="cls-3" d="M477.2,628.8a4.4,4.4,0,1,0,0-.16" transform="translate(-152.74 -188.68)"/><path id="path174" class="cls-3" d="M477.2,628.65a4.4,4.4,0,1,0,.75,2.62" transform="translate(-152.74 -188.68)"/><path id="path176" class="cls-5" d="M419,636.59a19.89,19.89,0,0,1,.11-2.45" transform="translate(-152.74 -188.68)"/><path id="path178" class="cls-3" d="M440.21,632.61a3.74,3.74,0,1,0-.18,3.16" transform="translate(-152.74 -188.68)"/><path id="path180" class="cls-3" d="M440.81,573.83l4.1.65-.49,3.1-2,1.9,2.82,1.24-1.75,3.06,4.39.38,3.26,4.49-4,2.07,3.69.74-.52,3.25-2.22,0,1.64,1.69-.53,3-5-.63,1.56,2.69L440.67,605l2.09,2.31-4.64,1.25-1.8-2.29-3.49,3.49,3.63,1.79-4.54,3.64-4.06-.4-3.33-1" transform="translate(-152.74 -188.68)"/><path id="path182" class="cls-5" d="M420.71,628.1a19.8,19.8,0,0,1,1.06-2,1.41,1.41,0,0,1,1.57-.95" transform="translate(-152.74 -188.68)"/><path id="path184" class="cls-3" d="M469.3,629.93a4.4,4.4,0,1,0,.82,3.94" transform="translate(-152.74 -188.68)"/><path id="path186" class="cls-3" d="M454.46,632.3a4.08,4.08,0,1,0,.26,3.56" transform="translate(-152.74 -188.68)"/><path id="path188" class="cls-3" d="M461.63,631.54a4.08,4.08,0,1,0,.51,3.49" transform="translate(-152.74 -188.68)"/><path id="path190" class="cls-3" d="M419.07,634.14a3.74,3.74,0,0,0,4.13,1" transform="translate(-152.74 -188.68)"/><path id="path192" class="cls-3" d="M424.42,628.93a3.74,3.74,0,0,0-3.7-.84" transform="translate(-152.74 -188.68)"/><path id="path194" class="cls-3" d="M457.63,626.85A78.8,78.8,0,0,0,480.3,620a8.34,8.34,0,0,1,5.92-.51,8.09,8.09,0,0,1,3.94,13.16,11,11,0,0,1-5.93,3.6,100.08,100.08,0,0,1-19.81,4.17" transform="translate(-152.74 -188.68)"/><path id="path196" class="cls-4" d="M603.25,545.9l.35-.15" transform="translate(-152.74 -188.68)"/><path id="path198" class="cls-2" d="M458.95,640.86q2.75-.14,5.48-.43" transform="translate(-152.74 -188.68)"/><path id="path200" class="cls-2" d="M419.07,634.14a3.73,3.73,0,0,1,1.65-6" transform="translate(-152.74 -188.68)"/><path id="path202" class="cls-3" d="M477.2,628.8v-.16" transform="translate(-152.74 -188.68)"/><path id="path204" class="cls-3" d="M497.28,647.54v0" transform="translate(-152.74 -188.68)"/><path id="path206" class="cls-3" d="M363.92,547.36a62,62,0,0,0,18.58,20.26" transform="translate(-152.74 -188.68)"/><path id="path208" class="cls-3" d="M596.69,547.36a62,62,0,0,1-18.58,20.26" transform="translate(-152.74 -188.68)"/><path id="path210" class="cls-6" d="M520.25,636.34A293.57,293.57,0,0,0,514,599.17,103.59,103.59,0,0,0,496.48,563a36.47,36.47,0,0,0-26.25-10.8" transform="translate(-152.74 -188.68)"/><path id="path212" class="cls-6" d="M480.3,550.73A36.79,36.79,0,0,1,506,563.18a129.28,129.28,0,0,1,17.17,30,108,108,0,0,1,9.6,39.57" transform="translate(-152.74 -188.68)"/><path id="path214" class="cls-7" d="M534.69,639.05a56.9,56.9,0,0,0,27.24,30.72" transform="translate(-152.74 -188.68)"/><path id="path216" class="cls-6" d="M544.08,672a68.72,68.72,0,0,1-20.74-29.68h0" transform="translate(-152.74 -188.68)"/><path id="path218" class="cls-8" d="M449,564.18l-27.59-31.51q-3.44,2.68-6.77,5.51l28.54,32.58q1.48-1.86,3.06-3.64Q447.6,565.59,449,564.18Z" transform="translate(-152.74 -188.68)"/><path id="path220" class="cls-8" d="M424.75,530.15l28,30.78a47.19,47.19,0,0,1,4-2.85l-27.89-30.9Q426.78,528.63,424.75,530.15Z" transform="translate(-152.74 -188.68)"/><path id="path222" class="cls-8" d="M399.46,520.8l6.56-5.75-4.16-4.75-6.51,5.8Z" transform="translate(-152.74 -188.68)"/><path id="path224" class="cls-8" d="M539.16,532.67l-15.3,17.47a73.84,73.84,0,0,1,2.53,10.34l19.54-22.31Q542.6,535.35,539.16,532.67Z" transform="translate(-152.74 -188.68)"/><path id="path226" class="cls-8" d="M522.1,545.28l13.75-15.13q-2-1.51-4.08-3L519.9,540.33Q521.09,542.77,522.1,545.28Z" transform="translate(-152.74 -188.68)"/><path id="path228" class="cls-8" d="M554.59,515.05l6.56,5.75,4.11-4.69-6.51-5.8Z" transform="translate(-152.74 -188.68)"/><path id="path230" class="cls-8" d="M574.09,693.66l-15.37-17.14q-2.79.54-5.59.86l17.5,19.54Q572.39,695.33,574.09,693.66Z" transform="translate(-152.74 -188.68)"/><path id="path232" class="cls-8" d="M388.3,695.37l30.8-34.27q-3-.09-6.05-.46L384.89,692Q386.56,693.74,388.3,695.37Z" transform="translate(-152.74 -188.68)"/><path id="path234" class="cls-8" d="M552.28,504.53l3.78,3.37-4.27,4.7L548,509.24Z" transform="translate(-152.74 -188.68)"/><path id="path236" class="cls-8" d="M404.54,507.91l3.83-3.41,4.29,4.75-3.84,3.36Z" transform="translate(-152.74 -188.68)"/><path id="path238" class="cls-8" d="M398.67,703,438,659.09a69.15,69.15,0,0,1-14,2l-33,36.77q3.41,3,7,5.86l0,0C397.9,702.78,397.85,702.92,398.67,703Z" transform="translate(-152.74 -188.68)"/><path id="path240" class="cls-8" d="M536,677.44l24.78,27.65v0q3.67-2.75,7.13-5.74l-19.36-21.58a76.55,76.55,0,0,1-12.54-.34Z" transform="translate(-152.74 -188.68)"/><path id="path242" class="cls-9" d="M486.22,619.5a8.34,8.34,0,0,0-5.92.51,78.8,78.8,0,0,1-22.67,6.85,95,95,0,0,1-34.3-1.72,1.41,1.41,0,0,0-1.57.95,19.8,19.8,0,0,0-1.06,2,3.74,3.74,0,0,1,3.7.84V629a3.74,3.74,0,0,1,4.16,1,3.79,3.79,0,0,1,1.26-.44,3.74,3.74,0,0,1,4,2.12,3.74,3.74,0,0,1,6.41.92,4.08,4.08,0,0,1,7.18-.29,4.08,4.08,0,0,1,7.07,0,4.08,4.08,0,0,1,7.17-.76,4.41,4.41,0,0,1,7.67-1.61,4.4,4.4,0,0,1,7.9-1.29,4.4,4.4,0,1,1,.75,2.62,4.4,4.4,0,0,1-7.83,2.61,4.41,4.41,0,0,1-8,1.16,4.08,4.08,0,0,1-7.43.83,4.08,4.08,0,0,1-7.3.56,4.08,4.08,0,0,1-7.38-.66,3.74,3.74,0,0,1-6.69-.2,3.74,3.74,0,0,1-5.75.15,37.13,37.13,0,0,1-8.54-1.57,19.89,19.89,0,0,0-.11,2.45,1.48,1.48,0,0,0,.11.68,1.47,1.47,0,0,0,1.31.91q2.92.63,5.86,1.13a134.5,134.5,0,0,0,32.71,1.54q2.75-.14,5.48-.43a100.08,100.08,0,0,0,19.81-4.17,11,11,0,0,0,5.93-3.6,8.09,8.09,0,0,0-3.94-13.16Z" transform="translate(-152.74 -188.68)"/><path id="path244" class="cls-9" d="M419.09,661.1l-30.8,34.27q1.34,1.26,2.71,2.48l33-36.77Q421.56,661.18,419.09,661.1Z" transform="translate(-152.74 -188.68)"/><path id="path246" class="cls-9" d="M548.52,677.78l19.36,21.58q1.39-1.2,2.75-2.44l-17.5-19.54Q550.83,677.65,548.52,677.78Z" transform="translate(-152.74 -188.68)"/><path id="path248" class="cls-9" d="M523.86,550.14l15.3-17.47q-1.64-1.28-3.31-2.52L522.1,545.28q1,2.4,1.76,4.86Z" transform="translate(-152.74 -188.68)"/><path id="path250" class="cls-9" d="M452.72,560.92l-28-30.78q-1.67,1.25-3.31,2.52L449,564.18A47,47,0,0,1,452.72,560.92Z" transform="translate(-152.74 -188.68)"/><path id="path252" class="cls-9" d="M406,515.05l2.79-2.45-4.27-4.7-2.69,2.39Z" transform="translate(-152.74 -188.68)"/><path id="path254" class="cls-9" d="M556.07,507.91l-4.27,4.7,2.79,2.45,4.16-4.75Z" transform="translate(-152.74 -188.68)"/><path id="path256" class="cls-9" d="M451.09,588.64l-3.26-4.49-4.39-.38,1.75-3.06-2.82-1.24,2-1.9.49-3.1-4-.64a84.33,84.33,0,0,0-10.32,19,116.8,116.8,0,0,0-6,20.92l3.33,1,4.06.4,4.54-3.64-3.63-1.79,3.49-3.49,1.8,2.29,4.64-1.25L440.67,605l5.09-3.57-1.56-2.69,5,.63.53-3-1.64-1.69,2.22,0,.52-3.25-3.69-.74Z" transform="translate(-152.74 -188.68)"/><path id="path258" class="cls-9" d="M438,659.09a69.17,69.17,0,0,0,25.31-12.19q-3-.29-6.09-.68a65.14,65.14,0,0,1-57.13,7.3v4.31A69.27,69.27,0,0,0,413,660.65q3,.36,6.05.46,2.46.08,4.92,0a69.14,69.14,0,0,0,14-2Z" transform="translate(-152.74 -188.68)"/><path id="path260" class="cls-9" d="M507.9,545.6a60.7,60.7,0,0,1,5.62,17.28q.43,2.12.81,4.25A84.33,84.33,0,0,1,523,578.65q-.9-8.58-2.62-17a67.63,67.63,0,0,0-6.16-19,54.35,54.35,0,0,0-19.84-23.49,34.61,34.61,0,0,0-33.09,0,24.58,24.58,0,0,0-8.18,8.29,11.51,11.51,0,0,0-.3,13,14.42,14.42,0,0,0,13.71,4.22,5.21,5.21,0,0,0,4-5.92c-.44-2.72-1.93-4.63-4.67-4.35a2.56,2.56,0,0,0-2.22,1.54,3.69,3.69,0,0,1-3.15,1.57,7.49,7.49,0,0,1-2.13-1.35,4.58,4.58,0,0,1,.55-4.87,17.66,17.66,0,0,1,5.89-6.15,27.68,27.68,0,0,1,26-.08A47.42,47.42,0,0,1,507.9,545.6Z" transform="translate(-152.74 -188.68)"/><path id="path262" class="cls-8" d="M488.47,647.49a4.4,4.4,0,0,1,8.8,0h0a4.4,4.4,0,0,1,8.38-1.66,177.14,177.14,0,0,0,17.67-3.51q5.73-1.44,11.36-3.27,3-1,6-2.05l4.1-1.59a4.56,4.56,0,0,0-2.4-6.06l-3.83,1.45-.12,0q-2.81,1-5.65,1.95-6.2,2-12.52,3.55a170.56,170.56,0,0,1-55.82,4.09q-2.74.29-5.48.43a134.49,134.49,0,0,1-32.71-1.54,177.11,177.11,0,0,0,31,6.9q3,.39,6.09.68a177,177,0,0,0,19.92.76q2.61,0,5.22-.17Z" transform="translate(-152.74 -188.68)"/><path id="path264" class="cls-9" d="M494.67,651.73a4.4,4.4,0,0,1-6.2-3.82c0-.14,0-.28,0-.42q-2.61.12-5.22.17a76.79,76.79,0,0,0,65.27,30.12q2.31-.13,4.61-.39,2.8-.33,5.59-.86a76.91,76.91,0,0,0,12.19-3.4v-6.3a70.88,70.88,0,0,1-76.25-15.09Z" transform="translate(-152.74 -188.68)"/><path id="path266" class="cls-10" d="M402.54,524.32q6.77-5.64,13.59-11.22a104.39,104.39,0,0,1,51.22-27.9,71.52,71.52,0,0,0-41,39.26,145.39,145.39,0,0,0-13.75,11.39,53,53,0,0,0-29.76,25.67,19.36,19.36,0,0,0,1.16,12,41.35,41.35,0,0,1,30.64-35.35q3.33-2.83,6.77-5.51,1.64-1.28,3.31-2.52,2-1.51,4.08-3a101.07,101.07,0,0,1,41.77-41.08,37.5,37.5,0,0,1-.23-4.55,116.59,116.59,0,0,0-57.72,27.7l-3.84,3.36L406,515.05l-6.56,5.75a90.54,90.54,0,0,1-42.1,25.1,18.52,18.52,0,0,0,13.22.48,94.24,94.24,0,0,0,32-22.06Z" transform="translate(-152.74 -188.68)"/><path id="path268" class="cls-10" d="M490,486.09a101.11,101.11,0,0,1,41.77,41.08q2.06,1.46,4.08,3,1.67,1.25,3.31,2.52,3.44,2.68,6.77,5.51a41.38,41.38,0,0,1,30.64,35.35,19.36,19.36,0,0,0,1.16-12A53,53,0,0,0,548,535.85a145.42,145.42,0,0,0-13.75-11.39,71.55,71.55,0,0,0-41-39.26,104.35,104.35,0,0,1,51.22,27.9q6.82,5.57,13.59,11.22a94.26,94.26,0,0,0,32,22.06,18.52,18.52,0,0,0,13.22-.48,90.57,90.57,0,0,1-42.1-25.1l-6.56-5.75-2.79-2.45L548,509.24a116.55,116.55,0,0,0-57.72-27.7,37.49,37.49,0,0,1-.23,4.55Z" transform="translate(-152.74 -188.68)"/><path id="path270" class="cls-10" d="M382.5,567.62a62,62,0,0,1-18.58-20.26,18.53,18.53,0,0,1-6.56-1.46A64.91,64.91,0,0,0,384,573.53,19.35,19.35,0,0,1,382.5,567.62Z" transform="translate(-152.74 -188.68)"/><path id="path272" class="cls-10" d="M422.65,634.53A3.74,3.74,0,0,1,424.4,629v-.05a3.74,3.74,0,1,0-1.25,6.22l0,0a3.75,3.75,0,0,1-.48-.58Z" transform="translate(-152.74 -188.68)"/><path id="path274" class="cls-10" d="M428.56,630a3.73,3.73,0,1,0-1,5.71,3.74,3.74,0,0,1,1-5.71Z" transform="translate(-152.74 -188.68)"/><path id="path276" class="cls-10" d="M428.56,630a3.74,3.74,0,1,0,4.79,5.56,3.75,3.75,0,0,1,.45-3.88,3.74,3.74,0,0,0-4-2.12,3.78,3.78,0,0,0-1.26.44Z" transform="translate(-152.74 -188.68)"/><path id="path278" class="cls-10" d="M433.81,631.68a3.74,3.74,0,1,0,6.23,4.08,4.12,4.12,0,0,1,.18-3.16,3.74,3.74,0,0,0-6.41-.92Z" transform="translate(-152.74 -188.68)"/><path id="path280" class="cls-10" d="M440.21,632.61a4.11,4.11,0,0,0-.41,1.82,4.08,4.08,0,0,0,7.61,2,4.1,4.1,0,0,1,0-4.11,4.08,4.08,0,0,0-7.18.29Z" transform="translate(-152.74 -188.68)"/><path id="path282" class="cls-10" d="M447.39,632.32a4.08,4.08,0,1,0,7.33,3.54,4.1,4.1,0,0,1-.26-3.56,4.08,4.08,0,0,0-7.07,0Z" transform="translate(-152.74 -188.68)"/><path id="path284" class="cls-10" d="M454.46,632.3a4.08,4.08,0,1,0,7.68,2.73,4.44,4.44,0,0,1-.51-3.49,4.08,4.08,0,0,0-7.17.76Z" transform="translate(-152.74 -188.68)"/><path id="path286" class="cls-10" d="M461.63,631.54a4.4,4.4,0,0,0,8.49,2.33,4.42,4.42,0,0,1-.82-3.94,4.41,4.41,0,0,0-7.67,1.61Z" transform="translate(-152.74 -188.68)"/><path id="path288" class="cls-10" d="M469.3,629.93a4.4,4.4,0,1,0,8.65,1.33,4.38,4.38,0,0,1-.75-2.46v-.16a4.4,4.4,0,0,0-7.9,1.29Z" transform="translate(-152.74 -188.68)"/><path id="path290" class="cls-10" d="M477.2,628.65v.16a4.4,4.4,0,1,0,0-.16Z" transform="translate(-152.74 -188.68)"/><path id="path292" class="cls-10" d="M501.89,643.31a4.4,4.4,0,0,0-4.61,4.18v0s0,.1,0,.15v.06a4.4,4.4,0,1,0,4.61-4.43Z" transform="translate(-152.74 -188.68)"/><path id="path294" class="cls-10" d="M596.69,547.36a62,62,0,0,1-18.58,20.26,19.37,19.37,0,0,1-1.54,5.91,64.89,64.89,0,0,0,26.68-27.63A18.51,18.51,0,0,1,596.69,547.36Z" transform="translate(-152.74 -188.68)"/><path id="path296" class="cls-10" d="M492.66,643.31a4.4,4.4,0,0,0-4.19,4.18c0,.14,0,.28,0,.42a4.4,4.4,0,0,0,8.8-.16v-.06s0-.1,0-.15v0h0a4.4,4.4,0,0,0-4.61-4.17Z" transform="translate(-152.74 -188.68)"/><path id="path298" class="cls-11" d="M346.12,597.7a134.18,134.18,0,1,1,228,96q-1.7,1.66-3.46,3.26-1.36,1.24-2.75,2.44A134.18,134.18,0,0,1,391,697.85q-1.37-1.22-2.71-2.48-1.73-1.63-3.4-3.32a133.75,133.75,0,0,1-38.77-94.34Zm-16.89,0A150.36,150.36,0,0,0,354,680.54q1.13,1.72,2.31,3.41,3.62,5.2,7.66,10.07A152,152,0,0,0,384,714.09q4.87,4,10.07,7.66,1.69,1.18,3.41,2.31a151.17,151.17,0,0,0,165.67,0q1.72-1.13,3.41-2.31,5.2-3.62,10.07-7.66A152,152,0,0,0,596.69,694q4-4.87,7.66-10.07,1.18-1.69,2.31-3.41a151.17,151.17,0,0,0,0-165.67q-1.13-1.72-2.31-3.41-3.62-5.2-7.66-10.07a152,152,0,0,0-20.06-20.06q-4.87-4-10.07-7.66-1.69-1.18-3.41-2.31a151.17,151.17,0,0,0-165.67,0q-1.72,1.13-3.41,2.31-5.2,3.62-10.07,7.66a152,152,0,0,0-20.06,20.06q-4,4.87-7.66,10.07-1.18,1.69-2.31,3.41a150.36,150.36,0,0,0-24.72,82.84Z" transform="translate(-152.74 -188.68)"/><path id="path300" class="cls-11" d="M670.08,443.81,660,451.72l-63.31,49.66q4,4.87,7.66,10.07,1.18,1.69,2.31,3.41L668,468.37l4.91-3.64.48-.35,0,.52.26,5.6.6,6.09.9,6,1.2,6,1.5,5.91,1.8,5.83,2.09,5.73,2.37,5.62,2.65,5.5,2.93,5.36,3.2,5.22,3.47,5.06,3.74,4.89,6.11,8.43,5.09,8.83,4.07,9.16,3.05,9.41,2,9.59,1,9.7v9.74l-1,9.7-2,9.59-3.05,9.41-4.07,9.16-5.09,8.83-6.11,8.43-3.74,4.89-3.47,5.06-3.2,5.21-2.93,5.36-2.65,5.5-2.37,5.62-2.09,5.73-1.8,5.83-1.5,5.91-1.2,6-.9,6-.6,6.09-.26,5.6,0,.52-.48-.35-5.34-4-60.91-46.18q-1.13,1.72-2.31,3.41-3.62,5.2-7.66,10.07l63.8,50,9.6,7.53,26.22,20.57.92.72-.35-1.2-2-7-1.73-8.24-1.07-8.3-.43-8.31.21-8.29.84-8.24,1.47-8.14,2.09-8,2.7-7.84,3.31-7.64,3.91-7.4,4.5-7.12,5.09-6.8,7.32-10.09,6.1-10.64L734,638.59l3.66-11.43,2.44-11.68,1.22-11.83V591.76l-1.22-11.83-2.44-11.68L734,556.82l-4.88-11.08-6.1-10.64L715.73,525l-5.09-6.8-4.5-7.12-3.91-7.4-3.31-7.64-2.7-7.84-2.09-8-1.47-8.14-.84-8.24-.21-8.29.43-8.31,1.07-8.3,1.73-8.24,2-7,.35-1.2-.92.72Z" transform="translate(-152.74 -188.68)"/><path id="path302" class="cls-11" d="M286.93,470.5l.26-5.6,0-.52.48.35,4.91,3.64L354,514.87q1.13-1.72,2.31-3.41,3.62-5.2,7.66-10.07l-63.31-49.66-10.09-7.91L264.3,423.25l-.92-.72.35,1.2,2,7,1.73,8.24,1.07,8.3.43,8.31-.21,8.29-.84,8.24-1.47,8.14-2.09,8-2.7,7.84-3.31,7.64-3.91,7.4-4.5,7.12-5.09,6.8-7.32,10.09-6.1,10.64-4.88,11.08-3.66,11.43-2.44,11.68-1.22,11.83v11.88l1.22,11.83,2.44,11.68,3.66,11.43,4.88,11.08,6.1,10.64,7.32,10.09,5.09,6.8,4.5,7.12,3.91,7.4,3.31,7.64,2.7,7.84,2.09,8,1.47,8.14.84,8.24.21,8.29-.43,8.31-1.07,8.3-1.73,8.24-2,7-.35,1.2.92-.72,26.22-20.57,9.6-7.53,63.8-50q-4-4.87-7.66-10.07-1.18-1.69-2.31-3.41L293,726.72l-5.34,4-.48.35,0-.52-.26-5.6-.6-6.09-.9-6-1.2-6-1.5-5.91-1.8-5.83-2.09-5.73-2.37-5.62-2.65-5.5-2.93-5.36-3.2-5.21-3.47-5.06-3.74-4.89-6.11-8.43-5.09-8.83-4.07-9.16-3.05-9.41-2-9.59-1-9.7v-9.74l1-9.7,2-9.59,3.05-9.41,4.07-9.16,5.09-8.83,6.11-8.43,3.74-4.89,3.47-5.06,3.2-5.22,2.93-5.36,2.65-5.5,2.37-5.62,2.09-5.73,1.8-5.83,1.5-5.91,1.2-6,.9-6Z" transform="translate(-152.74 -188.68)"/><path id="path304" class="cls-11" d="M394.06,473.66q1.69-1.18,3.41-2.31L351,410l-3.64-4.91-.35-.48.52,0,5.6-.26,6.09-.6,6-.9,6-1.2,5.91-1.5,5.83-1.8,5.73-2.09,5.62-2.37,5.5-2.65,5.36-2.93,5.21-3.2,5.06-3.47,4.89-3.74,8.43-6.11,8.83-5.09,9.16-4.07,9.41-3.05,9.59-2,9.7-1h9.74l9.7,1,9.59,2,9.41,3.05,9.16,4.07,8.83,5.09,8.43,6.11,4.89,3.74,5.06,3.47,5.22,3.2,5.36,2.93,5.5,2.65,5.62,2.37,5.73,2.09,5.83,1.8,5.91,1.5,6,1.2,6,.9,6.09.6,5.6.26.52,0-.35.48-4,5.34-46.18,60.91q1.72,1.13,3.41,2.31,5.2,3.62,10.07,7.66l50-63.8,7.53-9.6,20.57-26.22.72-.92-1.2.35-7,2-8.24,1.73-8.3,1.07-8.31.43-8.29-.21-8.24-.84-8.14-1.47-8-2.09-7.84-2.7-7.64-3.31-7.4-3.91-7.12-4.5-6.8-5.09L542.91,355l-10.64-6.1L521.19,344l-11.43-3.66-11.68-2.44-11.83-1.22H474.36l-11.83,1.22-11.68,2.44L439.42,344l-11.08,4.88L417.7,355l-10.09,7.32-6.8,5.09-7.12,4.5-7.4,3.91-7.64,3.31-7.84,2.7-8,2.09-8.14,1.47-8.24.84-8.29.21-8.31-.43-8.3-1.07-8.24-1.73-7-2-1.2-.35.72.92,20.57,26.22L334.32,418,384,481.32q4.87-4,10.07-7.66Z" transform="translate(-152.74 -188.68)"/><path id="path306" class="cls-11" d="M566.55,721.75q-1.69,1.18-3.41,2.31L609.32,785l4,5.34.35.48-.52,0-5.6.26-6.09.6-6,.9-6,1.21-5.91,1.5-5.83,1.8-5.73,2.09-5.62,2.37-5.5,2.65-5.36,2.93-5.22,3.2-5.06,3.47-4.89,3.74-8.43,6.11L523,828.73l-9.16,4.07-9.41,3.05-9.59,2-9.7,1h-9.74l-9.7-1-9.59-2-9.41-3.05-9.16-4.07-8.83-5.09-8.43-6.11-4.89-3.74-5.06-3.47-5.21-3.2-5.36-2.93-5.5-2.65-5.62-2.37L383,797.08l-5.83-1.8-5.91-1.5-6-1.21-6-.9-6.09-.6-5.6-.26-.52,0,.35-.48L351,785.4l46.5-61.34q-1.72-1.13-3.41-2.31-5.2-3.62-10.07-7.66L334.32,777.4l-7.91,10.09-20.57,26.22-.72.92,1.2-.35,7-2,8.24-1.73,8.3-1.07,8.31-.43,8.29.21,8.24.84,8.14,1.47,8,2.09,7.84,2.7,7.64,3.31,7.4,3.91,7.12,4.5,6.8,5.09,10.09,7.32,10.64,6.1,11.08,4.88,11.43,3.66,11.68,2.44,11.83,1.22h11.88l11.83-1.22,11.68-2.44,11.43-3.66,11.08-4.88,10.64-6.1L553,833.14l6.8-5.09,7.12-4.5,7.4-3.91,7.64-3.31,7.84-2.7,8-2.09,8.14-1.47,8.24-.84,8.29-.21,8.31.43,8.3,1.07,8.24,1.73,7,2,1.2.35-.72-.92L634.2,787.49l-7.53-9.6-50-63.8Q571.76,718.13,566.55,721.75Z" transform="translate(-152.74 -188.68)"/><path id="path308" class="cls-11" d="M534.22,524.46A145.41,145.41,0,0,1,548,535.85a53,53,0,0,1,29.76,25.67,19.38,19.38,0,0,1,.38,6.1,62,62,0,0,0,18.58-20.26,18.53,18.53,0,0,1-6.65-1,94.26,94.26,0,0,1-32-22.06q-6.77-5.64-13.59-11.22a104.35,104.35,0,0,0-51.22-27.9,71.55,71.55,0,0,1,41,39.26Z" transform="translate(-152.74 -188.68)"/><path id="path310" class="cls-11" d="M426.38,524.46a71.52,71.52,0,0,1,41-39.26,104.39,104.39,0,0,0-51.22,27.9q-6.82,5.57-13.59,11.22a94.24,94.24,0,0,1-32,22.06,18.51,18.51,0,0,1-6.65,1,62,62,0,0,0,18.58,20.26,19.36,19.36,0,0,1,.38-6.1,53,53,0,0,1,29.76-25.67,145.4,145.4,0,0,1,13.75-11.39Z" transform="translate(-152.74 -188.68)"/><path id="path312" class="cls-11" d="M523.17,593.22a108,108,0,0,1,9.6,39.57q2.84-.92,5.65-1.95l.12,0a35,35,0,0,1-.8-4.73A116.76,116.76,0,0,0,530,592.86a84.32,84.32,0,0,0-15.72-25.74,47.14,47.14,0,0,0-34-16.39A36.79,36.79,0,0,1,506,563.18a129.28,129.28,0,0,1,17.17,30Z" transform="translate(-152.74 -188.68)"/><path id="path314" class="cls-11" d="M480.32,550.74a47.14,47.14,0,0,1,34,16.39q-.38-2.13-.81-4.25a60.7,60.7,0,0,0-5.62-17.28,47.42,47.42,0,0,0-17.12-20.48,27.68,27.68,0,0,0-26,.08,17.66,17.66,0,0,0-5.89,6.15,4.58,4.58,0,0,0-.55,4.87,7.49,7.49,0,0,0,2.13,1.35,3.69,3.69,0,0,0,3.15-1.57,2.56,2.56,0,0,1,2.22-1.54c2.74-.28,4.23,1.63,4.67,4.35a5.21,5.21,0,0,1-4,5.92,14.42,14.42,0,0,1-13.71-4.22,11.51,11.51,0,0,1,.3-13,24.58,24.58,0,0,1,8.18-8.29,34.61,34.61,0,0,1,33.09,0,54.35,54.35,0,0,1,19.84,23.49,67.64,67.64,0,0,1,6.16,19q1.72,8.45,2.62,17A84.36,84.36,0,0,1,530,592.86a186,186,0,0,0-3.66-32.37,73.88,73.88,0,0,0-2.53-10.34q-.79-2.46-1.76-4.86t-2.21-5l-.14-.29a60.51,60.51,0,0,0-22.25-26.16,40.77,40.77,0,0,0-39.35,0,30.74,30.74,0,0,0-10.24,10.24,17.66,17.66,0,0,0,0,20.19,20.57,20.57,0,0,0,19.92,6.42,8.58,8.58,0,0,0-.23,2.24q1.3-.42,2.63-.76a47.14,47.14,0,0,1,10.07-1.47h0Z" transform="translate(-152.74 -188.68)"/><path id="path316" class="cls-11" d="M452.72,560.92a47,47,0,0,0-3.69,3.25q-1.44,1.41-2.76,2.95-1.58,1.78-3.06,3.64-1.2,1.51-2.34,3.08l4,.64-.49,3.1-2,1.9,2.82,1.24-1.75,3.06,4.39.38,3.26,4.49-4,2.07,3.69.74-.52,3.25-2.22,0,1.64,1.69-.53,3-5-.63,1.56,2.69L440.67,605l2.09,2.31-4.64,1.25-1.8-2.29-3.49,3.49,3.63,1.79-4.54,3.64-4.06-.4-3.33-1q-1.06,5.62-1.58,11.34a1.41,1.41,0,0,1,.38,0,95,95,0,0,0,34.3,1.72A78.8,78.8,0,0,0,480.3,620a8.34,8.34,0,0,1,5.92-.51,8.09,8.09,0,0,1,3.94,13.16,11,11,0,0,1-5.93,3.6,100.08,100.08,0,0,1-19.81,4.17,170.56,170.56,0,0,0,55.82-4.09A293.57,293.57,0,0,0,514,599.17,103.59,103.59,0,0,0,496.48,563a36.47,36.47,0,0,0-26.25-10.8q-1.32.34-2.63.76a47.16,47.16,0,0,0-14.89,8Z" transform="translate(-152.74 -188.68)"/><path id="path318" class="cls-11" d="M457.24,646.22a177.12,177.12,0,0,1-31-6.9q-2.94-.5-5.86-1.13a1.47,1.47,0,0,1-1.31-.91,136.19,136.19,0,0,0-19,16.25,65.14,65.14,0,0,0,57.13-7.3Z" transform="translate(-152.74 -188.68)"/><path id="path320" class="cls-11" d="M544.08,672a68.72,68.72,0,0,1-20.74-29.68,177.1,177.1,0,0,1-17.67,3.51,4.4,4.4,0,1,1-8.39,1.91,4.4,4.4,0,0,1-2.61,4A70.91,70.91,0,0,0,543.82,672Z" transform="translate(-152.74 -188.68)"/><path id="path322" class="cls-11" d="M534.69,639.05a56.9,56.9,0,0,0,27,30.59l.28.14a71,71,0,0,0,9-3A50.62,50.62,0,0,1,540.66,637Q537.7,638.08,534.69,639.05Z" transform="translate(-152.74 -188.68)"/><path id="path324" class="cls-11" d="M172.23,415.5v-142l.06-1.14,0-.55,0-.58.08-.59.11-.61.14-.61.17-.61.21-.62.24-.62.28-.61.32-.61.36-.61.4-.61.45-.61.51-.61.57-.61.64-.61.71-.61.8-.61.89-.61,1-.61,1.11-.6,1.23-.59,1.37-.57,1.58-.57,24.38-7.8,24.41-7.17,24.3-6.49,24.21-5.82L307,225.49,331,221l24-3.8,24-3.13,23.93-2.46,23.91-1.79,23.9-1.13,23.9-.46,5.65,0,5.65,0,23.9.46,23.9,1.13,23.91,1.79,23.93,2.46,24,3.13,24,3.8,24.07,4.47,24.14,5.15L702,236.45l24.3,6.49,24.41,7.17,24.38,7.8,1.58.57,1.37.57,1.23.59,1.11.6,1,.61.89.61.8.61.71.61.64.61.57.61.51.61.45.61.41.61.36.61.32.61.28.61.24.62.21.62.17.61.14.61.11.61.08.59,0,.58,0,.55,0,1.14v142l-.1,27.88L788,470.86l-.38,27-.66,26.46-1.06,25.92-1.58,25.37-2.21,24.82-3,24.25-3.81,23.67-4.78,23.08-5.85,22.5-7,21.91-8.33,21.34-9.74,20.79L728.28,778.2l-12.93,19.75-14.73,19.26L684,836l-18.76,18.33-21,17.87-23.38,17.4-25.91,16.93L566.33,923,535,938.88l-34.64,15.54-2.95,1.31-2.44.92-2.38.75-2.33.6-2.28.46-2.23.33-2.18.21-2.12.1-1.11.09-1.11-.09-2.12-.1-2.18-.21-2.23-.33-2.28-.46-2.33-.6-2.38-.75-2.44-.92-2.95-1.31-34.64-15.54L394.28,923,365.7,906.53l-25.91-16.93-23.38-17.4-21-17.87L276.66,836,260,817.21l-14.73-19.26L232.33,778.2l-11.27-20.26-9.74-20.79L203,715.8l-7-21.91-5.85-22.5-4.78-23.08-3.81-23.67-3-24.25-2.21-24.82-1.58-25.37-1.06-25.92L173,497.83l-.38-27-.22-27.48ZM480.3,189.11l-5.75-.14-24.44.47-24.44,1.15-24.44,1.83-24.46,2.52-24.49,3.2L327.76,202l-24.57,4.57-24.63,5.25-24.69,5.93-24.77,6.62-24.85,7.3-25,8-2.36.86-2.23.93-2.11,1-2,1.07-1.86,1.14-1.74,1.2-1.63,1.25-1.51,1.3-1.4,1.34-1.29,1.38L160,252.57,158.91,254l-1,1.48L157,257l-.79,1.52-.7,1.53-.61,1.54-.52,1.54-.43,1.54-.35,1.54-.27,1.53-.19,1.51-.12,1.49,0,1.47,0,1.44V415.55l.1,28,.22,27.56.39,27.14.67,26.71,1.08,26.28L157.12,577l2.26,25.38,3,24.92,3.94,24.45,5,24,6.11,23.49,7.38,23,8.78,22.49,10.29,22,11.93,21.45,13.7,20.92,15.58,20.38L262.7,849.3l19.72,19.27,22,18.71,24.36,18.13L355.62,923l29.49,17,32.23,16.35L452.45,972l3.48,1.54,3.44,1.3,3.39,1.07,3.33.85,3.27.66,3.19.47,3.11.3,3,.15,1.61-.08,1.61.08,3-.15,3.11-.3,3.19-.47,3.27-.66,3.33-.85,3.39-1.07,3.44-1.3,3.48-1.54,35.11-15.74,32.23-16.35L605,923l26.86-17.55,24.36-18.13,22-18.71,19.72-19.27,17.59-19.83,15.58-20.38,13.7-20.92,11.93-21.45,10.29-22,8.78-22.49,7.38-23,6.11-23.49,5-24,3.94-24.45,3-24.92L803.49,577l1.61-25.84,1.08-26.28.67-26.71.39-27.14.22-27.56.19-28V273.65l-.06-1.44,0-1.47-.12-1.49-.19-1.51-.27-1.53-.35-1.54-.43-1.54-.52-1.54-.61-1.54-.7-1.53-.79-1.52-.88-1.5-1-1.48-1.08-1.45-1.19-1.42-1.29-1.38-1.4-1.34-1.51-1.3-1.63-1.25-1.74-1.2L790,243.54l-2-1.07-2.11-1-2.23-.93-2.36-.86-25-8-24.85-7.3-24.77-6.62L682,211.84l-24.63-5.25L632.85,202l-24.52-3.88-24.49-3.2-24.46-2.52-24.44-1.83-24.44-1.15L486.05,189Z" transform="translate(-152.74 -188.68)"/><path id="path326" class="cls-12" d="M755.2,342l-.21,2.6-.45,2.36-.69,2.12-.93,1.89-1.17,1.65L750.35,354l-1.65,1.18-1.84.93-2,.64-2.12.35-2.26.07-2.4-.22-2.54-.5-2.68-.78-3.33-1.32-3.11-1.66-2.89-2-2.68-2.35-2.46-2.7-2.25-3.05-2-3.4-1.79-3.7-1.51-3.93-1.23-4.16-1-4.4L708,318.4l-.4-4.87-.12-5.1.15-5.11.42-4.69.7-4.28,1-3.86,1.25-3.44,1.53-3,1.81-2.6,2.06-2.14,2.27-1.63,2.49-1.12,2.7-.61,2.92-.09,3.13.42,3.35.94,2.81,1.1,2.65,1.29,2.48,1.47,2.31,1.66,2.15,1.84,2,2,1.81,2.2,1.6,2.33,1.35,2.4,1.11,2.48.86,2.55.61,2.62.37,2.69.12,2.76-8.22-3-.07-1.6-.22-1.57-.37-1.53-.52-1.5-.67-1.46-.82-1.43-1-1.39-1.08-1.32-1.18-1.21L740,289.5l-1.36-1-1.45-.87-1.55-.76-1.64-.64-2.44-.68-2.28-.3-2.11.08-1.95.45-1.78.83-1.62,1.21-1.46,1.58-1.28,1.94L718,293.62l-.89,2.59-.69,2.92-.5,3.24-.3,3.57-.11,3.89.08,4.2.27,4,.47,3.77.66,3.55.85,3.34,1,3.12,1.24,2.9,1.41,2.65,1.57,2.37,1.73,2.09,1.89,1.8,2.05,1.52,2.21,1.24,2.37,1,1.59.47,1.5.3,1.42.13,1.33,0,1.25-.2,1.16-.37,1.08-.54,1-.7.85-.85.73-1,.61-1.15.49-1.3.36-1.45.24-1.6Z" transform="translate(-152.74 -188.68)"/><path id="path328" class="cls-12" d="M655.92,332.05v-76.4l3.88,1,4,1v30.19l4.76,1.21,1.8.41,1.67.26,1.53.11,1.4,0,1.27-.19,1.14-.35,1-.5.88-.66.78-.82.66-1,.56-1.16.45-1.32.34-1.49.23-1.66,0-.48.28-2.34.35-2.14.43-1.94.51-1.73.59-1.53.67-1.33.75-1.12.83-.92.91-.72,1-.51,1.08-.31,1.16-.11,1.24.1,1.33.3,3.39,1v9.43l-1.65-.5-.65-.15-.61-.06-.57,0-.53.13-.49.23-.44.32-.4.42-.36.51-.32.61-.29.7-.25.79-.21.89-.17,1-.13,1.07-.4,4.36-.31,2.19-.5,2-.7,1.72-.89,1.49-1.08,1.26-1.27,1-1.46.79-1.42.47,1.25,1.16,1.68,1.79,1.52,2,1.35,2.12,1.19,2.27,1,2.43.85,2.59.69,2.75,4,19.14.22,1.06.21,1,.2.93.2.86.19.79.18.72.17.65.17.6.17.56.17.53.18.5.18.46.18.43.18.39-4.12-1.2-4.16-1.18-.82-3.45-1.26-5.84-3-14.36-.54-2.21-.64-2.08-.74-1.94-.84-1.8-.94-1.67-1-1.53-1.14-1.39-1.25-1.26L676,302.13l-1.51-1-1.63-.93-1.76-.82-1.89-.71-2-.59-3.42-.86V334l-3.93-1Z" transform="translate(-152.74 -188.68)"/><path id="path330" class="cls-12" d="M609,322.29V245.51l34.27,7.11v8.62l-26.5-5.63v24.29l26.5,5.33v8.62l-26.5-5.31v26.49l26.5,5.63v8.62Z" transform="translate(-152.74 -188.68)"/><path id="path332" class="cls-12" d="M587.86,250.6l-23.13-3.18v43.26l-.17,4-.3,3.61-.43,3.21-.55,2.81-.68,2.41-.8,2-1,1.66-1.13,1.37-1.31,1.08-1.48.79-1.66.51-1.83.22-2-.07-3.75-.36v-9l2.13.2,1.17,0,1.06-.16.94-.34.83-.52.72-.71.6-.89.49-1.08.4-1.33.34-1.66.28-2,.22-2.31.15-2.63.09-3V237.85l38.43,5.31V320l-3.77-.6-3.89-.58Z" transform="translate(-152.74 -188.68)"/><path id="path334" class="cls-12" d="M501.81,311.12l-3.75-.1-3.87-.08v-77.2l43.7,2.26v77.12l-3.75-.3-3.88-.28V244.09l-28.46-1.47Z" transform="translate(-152.74 -188.68)"/><path id="path336" class="cls-12" d="M428.92,312.63l-3.78.28-3.86.31V236.1l6.14-.5,6.2-.45L451,298.8l16.77-65.1,6.15-.08,6.22,0v77.21h-3.76l-3.86,0V241.62L454.8,311.25l-3.81.15-3.81.17-18.26-68Z" transform="translate(-152.74 -188.68)"/><path id="path338" class="cls-12" d="M308.09,331.22V254.79l3.83-.93,3.92-.92v30.25l4.63-1.06,1.78-.46,1.65-.54,1.52-.63,1.39-.72,1.26-.81,1.13-.9,1-1,.87-1.09.77-1.2.66-1.32.55-1.43.44-1.55.33-1.66.23-1.78,0-.5.28-2.5.36-2.33.44-2.16.51-2,.59-1.83.67-1.67.74-1.5.82-1.33.9-1.17,1-1,1.06-.84,1.14-.67,1.22-.51,1.3-.34,3.29-.63v9.52l-1.64.31-.64.16-.6.24-.56.32-.52.39-.48.47-.44.54-.4.62-.36.69-.32.77-.28.85-.25.92-.21,1-.17,1.07-.13,1.15-.4,4.59-.31,2.36-.5,2.22-.68,2.07-.87,1.93L337.57,280l-1.25,1.64-1.43,1.5-1.4,1.16,1.24.56,1.66,1,1.5,1.24,1.34,1.48,1.18,1.72,1,2,.85,2.2.69,2.44L347,314.32l.23,1,.22.9.21.84.2.77.19.7.19.64.18.57.17.52.17.48.18.45.18.42.36.72-3.87,1.06-4.09.77L340.7,321l-1.3-5.28-3.07-13-.54-2-.64-1.78-.74-1.6-.83-1.41-.93-1.23-1-1-1.13-.85-1.24-.67-1.37-.5-1.49-.33-1.62-.15-1.75,0-1.88.2-2,.37-3.31.76v36.86l-3.75.88Z" transform="translate(-152.74 -188.68)"/><path id="path340" class="cls-12" d="M205.26,361.93V286.69l3.8-1.48,4.29-1.48v75.35l-3.7,1.41Z" transform="translate(-152.74 -188.68)"/><path id="path342" class="cls-12" d="M248.9,315l-13,4.2v32.2l-3.67,1.29L228,354V278.49l3.79-1.36,17.06-5.64,2.52-.69,2.36-.39,2.19-.1,2,.19,1.87.48,1.71.77,1.55,1.06,1.37,1.32,1.15,1.56.94,1.81.73,2,.52,2.29.32,2.53.11,2.77-.1,2.89-.31,2.77-.52,2.65-.73,2.53-.94,2.41-1.15,2.29-1.36,2.17-1.54,2-1.7,1.83L258,310.32l-2,1.45L253.75,313l-2.35,1.09Zm-13-4.33,12.93-4.21,1.52-.55,1.41-.66,1.31-.77,1.21-.88,1.11-1,1-1.1.91-1.21.8-1.3.67-1.38.55-1.46.43-1.54.3-1.62.18-1.7.06-1.78-.06-1.71-.19-1.56-.31-1.41-.43-1.25-.55-1.1-.68-.95-.8-.8-.91-.63-1-.46-1.11-.29-1.21-.11-1.32.06-1.42.24-1.52.41-12.89,4.26Z" transform="translate(-152.74 -188.68)"/><path id="path344" class="cls-12" d="M386.91,238.57l3,.24,2.83.71,2.62,1.18,2.41,1.64,2.2,2.11,2,2.57,1.76,3,1.48,3.34,1.21,3.69.94,4,.68,4.4.41,4.76.14,5.11-.13,5.26-.4,5-.67,4.65-.94,4.35-1.21,4-1.48,3.74L402,305.78l-2,3.08-2.2,2.67-2.41,2.26-2.62,1.85L390,317.1l-3,1-3.25.65-3.23.22-3-.23-2.83-.69L372,316.93l-2.42-1.61-2.22-2.07-2-2.54-1.78-3L362,304.43l-1.24-3.7-1-4.08-.69-4.45-.42-4.83-.14-5.21.13-5.13.41-4.85.68-4.58,1-4.3,1.23-4,1.51-3.74,1.78-3.46,2-3.11,2.22-2.71,2.42-2.31,2.63-1.9,2.83-1.5,3-1.08,3.23-.67Zm1.16,9-2.14-.21-2.29.15-2.28.48-2.13.8-2,1.12-1.83,1.43L373.74,253l-1.53,2.05-1.38,2.36-1.21,2.64-1,2.88-.84,3.12-.65,3.37-.47,3.61-.28,3.85-.09,4.09.1,4.16.28,3.85.47,3.54.66,3.24.84,2.93,1,2.62,1.21,2.32,1.38,2,1.53,1.63,1.68,1.27,1.83.92,2,.56,2.13.21,2.28-.14,2.29-.47,2.14-.78,2-1.1,1.83-1.41,1.67-1.72,1.52-2,1.37-2.36,1.2-2.64,1-2.9.83-3.16.64-3.42.46-3.68.27-3.94.09-4.2-.09-4.07-.28-3.78-.46-3.49-.65-3.2-.83-2.9-1-2.61-1.2-2.31-1.37-2-1.52-1.64L391.88,249l-1.83-.93Z" transform="translate(-152.74 -188.68)"/></svg>